<svg xmlns="http://www.w3.org/2000/svg" xmlns:xlink="http://www.w3.org/1999/xlink" version="1.1" width="256" height="256" viewBox="0 0 256 256" xml:space="preserve">
<desc>Created with Fabric.js 1.7.22</desc>
<defs>
</defs>
<g transform="translate(128 128) scale(1.21 1.21)" style="">
	<g style="stroke: none; stroke-width: 0; stroke-dasharray: none; stroke-linecap: butt; stroke-linejoin: miter; stroke-miterlimit: 10; fill: none; fill-rule: nonzero; opacity: 1;" transform="translate(-104.85 -104.85000000000001) scale(2.33 2.33)" >
	<path d="M 17.854 16.596 c -3.251 0 -5.897 -2.646 -5.897 -5.897 s 2.646 -5.897 5.897 -5.897 s 5.897 2.646 5.897 5.897 S 21.106 16.596 17.854 16.596 z M 17.854 6.802 c -2.149 0 -3.897 1.748 -3.897 3.897 s 1.748 3.897 3.897 3.897 s 3.897 -1.748 3.897 -3.897 S 20.003 6.802 17.854 6.802 z" style="stroke: none; stroke-width: 1; stroke-dasharray: none; stroke-linecap: butt; stroke-linejoin: miter; stroke-miterlimit: 10; fill: rgb(34,47,62); fill-rule: nonzero; opacity: 1;" transform=" matrix(1 0 0 1 0 0) " stroke-linecap="round" />
	<path d="M 78.681 26.756 c -3.252 0 -5.897 -2.646 -5.897 -5.897 s 2.646 -5.896 5.897 -5.896 c 3.251 0 5.896 2.645 5.896 5.896 S 81.932 26.756 78.681 26.756 z M 78.681 16.963 c -2.149 0 -3.897 1.748 -3.897 3.896 c 0 2.149 1.748 3.897 3.897 3.897 c 2.148 0 3.896 -1.748 3.896 -3.897 C 82.577 18.711 80.829 16.963 78.681 16.963 z" style="stroke: none; stroke-width: 1; stroke-dasharray: none; stroke-linecap: butt; stroke-linejoin: miter; stroke-miterlimit: 10; fill: rgb(34,47,62); fill-rule: nonzero; opacity: 1;" transform=" matrix(1 0 0 1 0 0) " stroke-linecap="round" />
	<path d="M 88.999 85.322 c -0.208 0 -0.418 -0.064 -0.598 -0.199 c -5.457 -4.082 -12.856 -7.333 -21.397 -9.401 c -0.537 -0.13 -0.866 -0.67 -0.736 -1.207 s 0.674 -0.868 1.207 -0.736 c 8.802 2.131 16.453 5.5 22.124 9.743 c 0.442 0.331 0.533 0.958 0.202 1.399 C 89.604 85.184 89.304 85.322 88.999 85.322 z" style="stroke: none; stroke-width: 1; stroke-dasharray: none; stroke-linecap: butt; stroke-linejoin: miter; stroke-miterlimit: 10; fill: rgb(34,47,62); fill-rule: nonzero; opacity: 1;" transform=" matrix(1 0 0 1 0 0) " stroke-linecap="round" />
	<path d="M 1.001 85.322 c -0.305 0 -0.605 -0.139 -0.802 -0.401 c -0.331 -0.441 -0.241 -1.068 0.202 -1.399 c 5.667 -4.24 13.314 -7.608 22.115 -9.741 c 0.532 -0.135 1.077 0.198 1.207 0.736 c 0.13 0.536 -0.199 1.077 -0.736 1.207 c -8.539 2.069 -15.935 5.319 -21.387 9.399 C 1.419 85.258 1.209 85.322 1.001 85.322 z" style="stroke: none; stroke-width: 1; stroke-dasharray: none; stroke-linecap: butt; stroke-linejoin: miter; stroke-miterlimit: 10; fill: rgb(34,47,62); fill-rule: nonzero; opacity: 1;" transform=" matrix(1 0 0 1 0 0) " stroke-linecap="round" />
	<path d="M 59.694 80.406 H 28.292 c -0.552 0 -1 -0.447 -1 -1 c 0 -6.132 4.989 -11.121 11.121 -11.121 h 11.16 c 6.132 0 11.121 4.989 11.121 11.121 C 60.694 79.959 60.247 80.406 59.694 80.406 z M 29.347 78.406 H 58.64 c -0.499 -4.561 -4.375 -8.121 -9.066 -8.121 h -11.16 C 33.722 70.285 29.847 73.846 29.347 78.406 z" style="stroke: none; stroke-width: 1; stroke-dasharray: none; stroke-linecap: butt; stroke-linejoin: miter; stroke-miterlimit: 10; fill: rgb(34,47,62); fill-rule: nonzero; opacity: 1;" transform=" matrix(1 0 0 1 0 0) " stroke-linecap="round" />
	<path d="M 38.412 70.285 c -0.552 0 -1 -0.447 -1 -1 V 58.142 c 0 -0.553 0.448 -1 1 -1 s 1 0.447 1 1 v 11.144 C 39.412 69.838 38.964 70.285 38.412 70.285 z" style="stroke: none; stroke-width: 1; stroke-dasharray: none; stroke-linecap: butt; stroke-linejoin: miter; stroke-miterlimit: 10; fill: rgb(34,47,62); fill-rule: nonzero; opacity: 1;" transform=" matrix(1 0 0 1 0 0) " stroke-linecap="round" />
	<path d="M 49.575 70.285 c -0.553 0 -1 -0.447 -1 -1 v -6.636 c 0 -0.553 0.447 -1 1 -1 s 1 0.447 1 1 v 6.636 C 50.575 69.838 50.128 70.285 49.575 70.285 z" style="stroke: none; stroke-width: 1; stroke-dasharray: none; stroke-linecap: butt; stroke-linejoin: miter; stroke-miterlimit: 10; fill: rgb(34,47,62); fill-rule: nonzero; opacity: 1;" transform=" matrix(1 0 0 1 0 0) " stroke-linecap="round" />
	<path d="M 7.395 51.518 H 6.08 c -0.552 0 -1 -0.447 -1 -1 s 0.448 -1 1 -1 h 1.315 c 0.552 0 1 0.447 1 1 S 7.947 51.518 7.395 51.518 z" style="stroke: none; stroke-width: 1; stroke-dasharray: none; stroke-linecap: butt; stroke-linejoin: miter; stroke-miterlimit: 10; fill: rgb(254,202,87); fill-rule: nonzero; opacity: 1;" transform=" matrix(1 0 0 1 0 0) " stroke-linecap="round" />
	<path d="M 13.984 51.518 h -1.315 c -0.552 0 -1 -0.447 -1 -1 s 0.448 -1 1 -1 h 1.315 c 0.552 0 1 0.447 1 1 S 14.537 51.518 13.984 51.518 z" style="stroke: none; stroke-width: 1; stroke-dasharray: none; stroke-linecap: butt; stroke-linejoin: miter; stroke-miterlimit: 10; fill: rgb(254,202,87); fill-rule: nonzero; opacity: 1;" transform=" matrix(1 0 0 1 0 0) " stroke-linecap="round" />
	<path d="M 10.032 48.88 c -0.552 0 -1 -0.447 -1 -1 v -1.314 c 0 -0.553 0.448 -1 1 -1 s 1 0.447 1 1 v 1.314 C 11.032 48.433 10.584 48.88 10.032 48.88 z" style="stroke: none; stroke-width: 1; stroke-dasharray: none; stroke-linecap: butt; stroke-linejoin: miter; stroke-miterlimit: 10; fill: rgb(254,202,87); fill-rule: nonzero; opacity: 1;" transform=" matrix(1 0 0 1 0 0) " stroke-linecap="round" />
	<path d="M 10.032 55.47 c -0.552 0 -1 -0.447 -1 -1 v -1.314 c 0 -0.553 0.448 -1 1 -1 s 1 0.447 1 1 v 1.314 C 11.032 55.022 10.584 55.47 10.032 55.47 z" style="stroke: none; stroke-width: 1; stroke-dasharray: none; stroke-linecap: butt; stroke-linejoin: miter; stroke-miterlimit: 10; fill: rgb(254,202,87); fill-rule: nonzero; opacity: 1;" transform=" matrix(1 0 0 1 0 0) " stroke-linecap="round" />
	<path d="M 80.069 6.68 c -0.26 0 -0.52 -0.11 -0.699 -0.29 c -0.101 -0.1 -0.17 -0.21 -0.221 -0.33 c -0.05 -0.12 -0.08 -0.25 -0.08 -0.38 c 0 -0.07 0.011 -0.13 0.021 -0.2 c 0.01 -0.06 0.03 -0.12 0.06 -0.18 C 79.17 5.24 79.2 5.18 79.24 5.12 c 0.04 -0.05 0.079 -0.1 0.13 -0.15 C 79.6 4.74 79.939 4.63 80.27 4.7 c 0.061 0.01 0.13 0.03 0.19 0.05 c 0.06 0.03 0.109 0.06 0.17 0.1 c 0.05 0.03 0.1 0.08 0.15 0.12 c 0.05 0.05 0.09 0.1 0.119 0.15 C 80.939 5.18 80.97 5.24 81 5.3 c 0.02 0.06 0.04 0.12 0.05 0.18 c 0.02 0.07 0.02 0.13 0.02 0.2 c 0 0.13 -0.02 0.26 -0.069 0.38 c -0.05 0.12 -0.13 0.23 -0.22 0.33 c -0.051 0.04 -0.101 0.08 -0.15 0.12 c -0.061 0.04 -0.11 0.07 -0.17 0.09 c -0.061 0.03 -0.13 0.05 -0.19 0.06 C 80.2 6.67 80.14 6.68 80.069 6.68 z" style="stroke: none; stroke-width: 1; stroke-dasharray: none; stroke-linecap: butt; stroke-linejoin: miter; stroke-miterlimit: 10; fill: rgb(254,202,87); fill-rule: nonzero; opacity: 1;" transform=" matrix(1 0 0 1 0 0) " stroke-linecap="round" />
	<path d="M 78.4 63.718 h -1.314 c -0.553 0 -1 -0.447 -1 -1 s 0.447 -1 1 -1 H 78.4 c 0.553 0 1 0.447 1 1 S 78.953 63.718 78.4 63.718 z" style="stroke: none; stroke-width: 1; stroke-dasharray: none; stroke-linecap: butt; stroke-linejoin: miter; stroke-miterlimit: 10; fill: rgb(254,202,87); fill-rule: nonzero; opacity: 1;" transform=" matrix(1 0 0 1 0 0) " stroke-linecap="round" />
	<path d="M 84.99 63.718 h -1.314 c -0.553 0 -1 -0.447 -1 -1 s 0.447 -1 1 -1 h 1.314 c 0.553 0 1 0.447 1 1 S 85.543 63.718 84.99 63.718 z" style="stroke: none; stroke-width: 1; stroke-dasharray: none; stroke-linecap: butt; stroke-linejoin: miter; stroke-miterlimit: 10; fill: rgb(254,202,87); fill-rule: nonzero; opacity: 1;" transform=" matrix(1 0 0 1 0 0) " stroke-linecap="round" />
	<path d="M 81.038 61.08 c -0.553 0 -1 -0.447 -1 -1 v -1.315 c 0 -0.553 0.447 -1 1 -1 s 1 0.447 1 1 v 1.315 C 82.038 60.633 81.591 61.08 81.038 61.08 z" style="stroke: none; stroke-width: 1; stroke-dasharray: none; stroke-linecap: butt; stroke-linejoin: miter; stroke-miterlimit: 10; fill: rgb(254,202,87); fill-rule: nonzero; opacity: 1;" transform=" matrix(1 0 0 1 0 0) " stroke-linecap="round" />
	<path d="M 81.038 67.67 c -0.553 0 -1 -0.447 -1 -1 v -1.315 c 0 -0.553 0.447 -1 1 -1 s 1 0.447 1 1 v 1.315 C 82.038 67.223 81.591 67.67 81.038 67.67 z" style="stroke: none; stroke-width: 1; stroke-dasharray: none; stroke-linecap: butt; stroke-linejoin: miter; stroke-miterlimit: 10; fill: rgb(254,202,87); fill-rule: nonzero; opacity: 1;" transform=" matrix(1 0 0 1 0 0) " stroke-linecap="round" />
	<path d="M 2.39 27.43 c -0.14 0 -0.26 -0.02 -0.39 -0.07 c -0.12 -0.05 -0.23 -0.13 -0.32 -0.22 c -0.19 -0.18 -0.29 -0.44 -0.29 -0.71 c 0 -0.13 0.02 -0.26 0.07 -0.38 c 0.05 -0.12 0.12 -0.23 0.22 -0.32 c 0.09 -0.1 0.2 -0.17 0.32 -0.22 c 0.19 -0.07 0.39 -0.09 0.58 -0.05 c 0.06 0.01 0.13 0.03 0.19 0.05 c 0.06 0.03 0.12 0.06 0.17 0.09 c 0.06 0.04 0.11 0.08 0.15 0.13 c 0.09 0.09 0.17 0.2 0.22 0.32 c 0.05 0.12 0.08 0.25 0.08 0.38 c 0 0.07 -0.01 0.14 -0.02 0.2 c -0.02 0.06 -0.04 0.13 -0.06 0.19 c -0.03 0.06 -0.06 0.12 -0.09 0.17 c -0.04 0.05 -0.08 0.11 -0.13 0.15 C 3.05 27.19 3 27.23 2.94 27.27 c -0.05 0.03 -0.11 0.06 -0.17 0.09 c -0.06 0.02 -0.12 0.04 -0.19 0.05 C 2.52 27.43 2.45 27.43 2.39 27.43 z" style="stroke: none; stroke-width: 1; stroke-dasharray: none; stroke-linecap: butt; stroke-linejoin: miter; stroke-miterlimit: 10; fill: rgb(254,202,87); fill-rule: nonzero; opacity: 1;" transform=" matrix(1 0 0 1 0 0) " stroke-linecap="round" />
	<path d="M 7.9 68.77 c -0.27 0 -0.52 -0.109 -0.71 -0.3 c -0.18 -0.18 -0.29 -0.439 -0.29 -0.7 c 0 -0.13 0.03 -0.26 0.08 -0.38 c 0.05 -0.13 0.12 -0.24 0.21 -0.33 c 0.38 -0.37 1.05 -0.37 1.42 0 c 0.09 0.09 0.16 0.2 0.21 0.33 c 0.05 0.12 0.08 0.25 0.08 0.38 c 0 0.261 -0.1 0.521 -0.29 0.7 C 8.42 68.66 8.17 68.77 7.9 68.77 z" style="stroke: none; stroke-width: 1; stroke-dasharray: none; stroke-linecap: butt; stroke-linejoin: miter; stroke-miterlimit: 10; fill: rgb(254,202,87); fill-rule: nonzero; opacity: 1;" transform=" matrix(1 0 0 1 0 0) " stroke-linecap="round" />
	<path d="M 81.7 46.58 c -0.261 0 -0.521 -0.101 -0.71 -0.29 c -0.091 -0.09 -0.16 -0.2 -0.21 -0.32 c -0.051 -0.13 -0.08 -0.25 -0.08 -0.38 c 0 -0.27 0.109 -0.53 0.29 -0.71 c 0.229 -0.23 0.579 -0.34 0.909 -0.28 c 0.061 0.02 0.12 0.04 0.181 0.06 c 0.06 0.03 0.12 0.06 0.18 0.09 c 0.05 0.04 0.1 0.08 0.15 0.13 c 0.18 0.18 0.29 0.44 0.29 0.71 c 0 0.13 -0.03 0.25 -0.08 0.38 c -0.051 0.12 -0.12 0.23 -0.21 0.32 c -0.051 0.05 -0.101 0.09 -0.15 0.13 c -0.06 0.03 -0.12 0.06 -0.18 0.09 c -0.061 0.021 -0.12 0.04 -0.181 0.05 C 81.83 46.58 81.77 46.58 81.7 46.58 z" style="stroke: none; stroke-width: 1; stroke-dasharray: none; stroke-linecap: butt; stroke-linejoin: miter; stroke-miterlimit: 10; fill: rgb(254,202,87); fill-rule: nonzero; opacity: 1;" transform=" matrix(1 0 0 1 0 0) " stroke-linecap="round" />
	<path d="M 47.77 8.71 c -0.069 0 -0.13 -0.01 -0.2 -0.02 c -0.06 -0.02 -0.119 -0.04 -0.18 -0.06 c -0.07 -0.03 -0.12 -0.06 -0.18 -0.09 c -0.05 -0.04 -0.101 -0.08 -0.15 -0.13 c -0.189 -0.18 -0.29 -0.44 -0.29 -0.7 c 0 -0.14 0.021 -0.27 0.07 -0.39 S 46.97 7.09 47.06 7 c 0.05 -0.05 0.101 -0.09 0.15 -0.13 c 0.06 -0.03 0.109 -0.06 0.18 -0.09 c 0.061 -0.02 0.12 -0.04 0.18 -0.05 c 0.131 -0.03 0.271 -0.03 0.391 0 c 0.07 0.01 0.13 0.03 0.189 0.05 c 0.061 0.03 0.12 0.06 0.17 0.09 C 48.38 6.91 48.43 6.95 48.47 7 c 0.1 0.09 0.17 0.2 0.22 0.32 c 0.051 0.12 0.08 0.25 0.08 0.39 c 0 0.26 -0.109 0.52 -0.3 0.7 c -0.04 0.05 -0.09 0.09 -0.15 0.13 c -0.05 0.03 -0.109 0.06 -0.17 0.09 c -0.06 0.02 -0.119 0.04 -0.189 0.06 C 47.899 8.7 47.83 8.71 47.77 8.71 z" style="stroke: none; stroke-width: 1; stroke-dasharray: none; stroke-linecap: butt; stroke-linejoin: miter; stroke-miterlimit: 10; fill: rgb(254,202,87); fill-rule: nonzero; opacity: 1;" transform=" matrix(1 0 0 1 0 0) " stroke-linecap="round" />
	<path d="M 58.538 34.316 c -0.256 0 -0.512 -0.098 -0.707 -0.293 c -0.391 -0.391 -0.391 -1.023 0 -1.414 l 3.64 -3.64 c 0.391 -0.391 1.023 -0.391 1.414 0 s 0.391 1.023 0 1.414 l -3.64 3.64 C 59.05 34.219 58.794 34.316 58.538 34.316 z" style="stroke: none; stroke-width: 1; stroke-dasharray: none; stroke-linecap: butt; stroke-linejoin: miter; stroke-miterlimit: 10; fill: rgb(254,202,87); fill-rule: nonzero; opacity: 1;" transform=" matrix(1 0 0 1 0 0) " stroke-linecap="round" />
	<path d="M 57.304 60.808 c -6.742 0 -13.438 -2.614 -18.54 -7.717 c -9.129 -9.129 -10.294 -23.355 -2.771 -33.827 c 0.171 -0.238 0.438 -0.39 0.731 -0.413 c 0.292 -0.026 0.581 0.082 0.788 0.29 l 23.644 23.644 l 0 0 l 11.559 11.559 c 0.208 0.207 0.313 0.496 0.29 0.788 c -0.024 0.293 -0.175 0.56 -0.414 0.731 C 67.973 59.18 62.623 60.808 57.304 60.808 z M 36.951 21.407 c -6.203 9.565 -4.925 22.118 3.227 30.27 s 20.702 9.431 30.271 3.228 L 36.951 21.407 z" style="stroke: none; stroke-width: 1; stroke-dasharray: none; stroke-linecap: butt; stroke-linejoin: miter; stroke-miterlimit: 10; fill: rgb(254,202,87); fill-rule: nonzero; opacity: 1;" transform=" matrix(1 0 0 1 0 0) " stroke-linecap="round" />
	<path d="M 22.52 33.47 c -0.14 0 -0.26 -0.02 -0.39 -0.07 c -0.12 -0.05 -0.23 -0.13 -0.32 -0.22 c -0.19 -0.19 -0.29 -0.44 -0.29 -0.71 c 0 -0.13 0.02 -0.26 0.07 -0.38 s 0.13 -0.23 0.22 -0.32 c 0.09 -0.1 0.2 -0.17 0.32 -0.22 c 0.37 -0.15 0.81 -0.06 1.09 0.22 c 0.1 0.09 0.17 0.2 0.22 0.32 c 0.05 0.12 0.08 0.25 0.08 0.38 c 0 0.14 -0.03 0.26 -0.08 0.39 c -0.05 0.12 -0.12 0.23 -0.22 0.32 c -0.09 0.09 -0.2 0.17 -0.32 0.22 C 22.78 33.45 22.65 33.47 22.52 33.47 z" style="stroke: none; stroke-width: 1; stroke-dasharray: none; stroke-linecap: butt; stroke-linejoin: miter; stroke-miterlimit: 10; fill: rgb(254,202,87); fill-rule: nonzero; opacity: 1;" transform=" matrix(1 0 0 1 0 0) " stroke-linecap="round" />
</g>
</g>
</svg>