<svg xmlns="http://www.w3.org/2000/svg" xmlns:xlink="http://www.w3.org/1999/xlink" version="1.1" width="256" height="256" viewBox="0 0 256 256" xml:space="preserve">
<desc>Created with Fabric.js 1.7.22</desc>
<defs>
</defs>
<g transform="translate(128 128) scale(1.21 1.21)" style="">
	<g style="stroke: none; stroke-width: 0; stroke-dasharray: none; stroke-linecap: butt; stroke-linejoin: miter; stroke-miterlimit: 10; fill: none; fill-rule: nonzero; opacity: 1;" transform="translate(-104.85 -104.85000000000001) scale(2.33 2.33)" >
	<polygon points="21.8,31.53 28.26,59.67 76.54,59.67 83,31.53 38.91,31.53 " style="stroke: none; stroke-width: 1; stroke-dasharray: none; stroke-linecap: butt; stroke-linejoin: miter; stroke-miterlimit: 10; fill: rgb(29,209,161); fill-rule: nonzero; opacity: 1;" transform="  matrix(1 0 0 1 0 0) "/>
	<path d="M 80.543 64.672 H 24.259 c -0.467 0 -0.872 -0.323 -0.975 -0.778 l -8.743 -38.4 c -0.885 -3.889 -4.289 -6.604 -8.277 -6.604 H 1 c -0.552 0 -1 -0.448 -1 -1 s 0.448 -1 1 -1 h 5.264 c 4.927 0 9.133 3.355 10.227 8.16 l 8.565 37.623 h 54.688 l 8.002 -35.144 H 38.912 c -0.552 0 -1 -0.448 -1 -1 s 0.448 -1 1 -1 H 89 c 0.305 0 0.592 0.139 0.781 0.376 c 0.19 0.238 0.262 0.549 0.193 0.846 l -8.457 37.143 C 81.414 64.349 81.01 64.672 80.543 64.672 z" style="stroke: none; stroke-width: 1; stroke-dasharray: none; stroke-linecap: butt; stroke-linejoin: miter; stroke-miterlimit: 10; fill: rgb(0,0,0); fill-rule: nonzero; opacity: 1;" transform=" matrix(1 0 0 1 0 0) " stroke-linecap="round" />
	<path d="M 19.438 78.466 c -4.354 0 -7.897 -3.542 -7.897 -7.896 s 3.542 -7.897 7.897 -7.897 h 61.042 c 0.553 0 1 0.447 1 1 s -0.447 1 -1 1 H 19.438 c -3.251 0 -5.897 2.646 -5.897 5.897 c 0 3.251 2.646 5.896 5.897 5.896 c 0.552 0 1 0.447 1 1 S 19.99 78.466 19.438 78.466 z" style="stroke: none; stroke-width: 1; stroke-dasharray: none; stroke-linecap: butt; stroke-linejoin: miter; stroke-miterlimit: 10; fill: rgb(0,0,0); fill-rule: nonzero; opacity: 1;" transform=" matrix(1 0 0 1 0 0) " stroke-linecap="round" />
	<path d="M 73.424 84.809 c -4.048 0 -7.342 -3.294 -7.342 -7.343 s 3.294 -7.343 7.342 -7.343 c 4.049 0 7.343 3.294 7.343 7.343 S 77.473 84.809 73.424 84.809 z M 73.424 72.123 c -2.945 0 -5.342 2.396 -5.342 5.343 s 2.396 5.343 5.342 5.343 c 2.946 0 5.343 -2.396 5.343 -5.343 S 76.37 72.123 73.424 72.123 z" style="stroke: none; stroke-width: 1; stroke-dasharray: none; stroke-linecap: butt; stroke-linejoin: miter; stroke-miterlimit: 10; fill: rgb(0,0,0); fill-rule: nonzero; opacity: 1;" transform=" matrix(1 0 0 1 0 0) " stroke-linecap="round" />
	<path d="M 33.959 84.809 c -4.048 0 -7.342 -3.294 -7.342 -7.343 s 3.294 -7.343 7.342 -7.343 c 4.049 0 7.343 3.294 7.343 7.343 S 38.008 84.809 33.959 84.809 z M 33.959 72.123 c -2.946 0 -5.342 2.396 -5.342 5.343 s 2.396 5.343 5.342 5.343 s 5.343 -2.396 5.343 -5.343 S 36.905 72.123 33.959 72.123 z" style="stroke: none; stroke-width: 1; stroke-dasharray: none; stroke-linecap: butt; stroke-linejoin: miter; stroke-miterlimit: 10; fill: rgb(0,0,0); fill-rule: nonzero; opacity: 1;" transform=" matrix(1 0 0 1 0 0) " stroke-linecap="round" />
	<path d="M 58.085 78.466 H 40.302 c -0.552 0 -1 -0.447 -1 -1 s 0.448 -1 1 -1 h 17.783 c 0.553 0 1 0.447 1 1 S 58.638 78.466 58.085 78.466 z" style="stroke: none; stroke-width: 1; stroke-dasharray: none; stroke-linecap: butt; stroke-linejoin: miter; stroke-miterlimit: 10; fill: rgb(0,0,0); fill-rule: nonzero; opacity: 1;" transform=" matrix(1 0 0 1 0 0) " stroke-linecap="round" />
	<path d="M 80.479 27.528 h -26.45 c -0.553 0 -1 -0.448 -1 -1 V 12.712 c 0 -0.552 0.447 -1 1 -1 h 26.45 c 0.553 0 1 0.448 1 1 v 13.816 C 81.479 27.081 81.032 27.528 80.479 27.528 z M 55.029 25.528 h 24.45 V 13.712 h -24.45 V 25.528 z" style="stroke: none; stroke-width: 1; stroke-dasharray: none; stroke-linecap: butt; stroke-linejoin: miter; stroke-miterlimit: 10; fill: rgb(0,0,0); fill-rule: nonzero; opacity: 1;" transform=" matrix(1 0 0 1 0 0) " stroke-linecap="round" />
	<path d="M 27.811 27.528 c -0.552 0 -1 -0.448 -1 -1 V 6.191 c 0 -0.552 0.448 -1 1 -1 h 34.705 c 0.553 0 1 0.448 1 1 v 6.521 c 0 0.552 -0.447 1 -1 1 s -1 -0.448 -1 -1 V 7.191 H 28.811 v 19.337 C 28.811 27.081 28.363 27.528 27.811 27.528 z" style="stroke: none; stroke-width: 1; stroke-dasharray: none; stroke-linecap: butt; stroke-linejoin: miter; stroke-miterlimit: 10; fill: rgb(0,0,0); fill-rule: nonzero; opacity: 1;" transform=" matrix(1 0 0 1 0 0) " stroke-linecap="round" />
	<rect x="58.03" y="16.71" rx="0" ry="0" width="18.45" height="5.82" style="stroke: none; stroke-width: 1; stroke-dasharray: none; stroke-linecap: butt; stroke-linejoin: miter; stroke-miterlimit: 10; fill: rgb(29,209,161); fill-rule: nonzero; opacity: 1;" transform=" matrix(1 0 0 1 0 0) "/>
</g>
</g>
</svg>